<?xml version="1.0" encoding="UTF-8"?>
<svg version="1.1" xmlns="http://www.w3.org/2000/svg" width="900" height="1209">
<path d="M0 0 C3.88016238 1.58287726 6.49805282 4.21997468 9.39604568 7.14715672 C10.19819276 7.94539286 10.19819276 7.94539286 11.01654482 8.75975499 C12.81636991 10.55325828 14.60894816 12.3538351 16.40167236 14.1544342 C17.69988659 15.45106091 18.99853836 16.74724965 20.29759097 18.0430364 C23.87316627 21.61218277 27.44245112 25.18756314 31.01076126 28.76397097 C34.85716564 32.61694056 38.70931645 36.4641573 42.5607605 40.31208801 C50.10694209 47.85322218 57.64776224 55.39969592 65.18679669 62.94797451 C73.95797493 71.72952217 82.7343631 80.50585512 91.51097068 89.28197592 C107.63698051 105.40746971 123.75770508 121.53823854 139.8759678 137.67147547 C154.60184692 152.41098476 169.33142163 167.14679035 184.06445312 181.87915039 C185.01078216 182.82543901 185.95711117 183.77172766 186.90344015 184.71801633 C187.37127992 185.18583576 187.83911969 185.65365518 188.32113643 186.13565095 C206.08252777 203.89628209 223.84071236 221.66011579 241.59712113 239.42572825 C247.72090534 245.55253503 253.84567162 251.67835903 259.97074127 257.80388069 C267.4276667 265.26148657 274.8827085 272.72096963 282.33536723 280.18283946 C286.14164831 283.99375352 289.94872922 287.80385944 293.75795364 291.61183167 C297.23874526 295.09153447 300.71724644 298.57350933 304.19385991 302.05738645 C305.45799932 303.32335074 306.72299828 304.58845737 307.9889001 305.85265935 C309.69733945 307.55905698 311.40272775 309.26844398 313.10731888 310.97868443 C313.8612505 311.72953307 313.8612505 311.72953307 314.63041306 312.49555036 C318 315.88584507 318 315.88584507 318 317 C266.52 317.33 215.04 317.66 162 318 C173.26125 329.24964844 184.5225 340.49929688 196.125 352.08984375 C203.23464951 359.19438706 210.34417307 366.29905566 217.453125 373.40429688 C221.18551153 377.13471961 224.91792353 380.86511686 228.65039062 384.59545898 C229.11822448 385.06302909 229.58605834 385.5305992 230.06806898 386.0123381 C237.16067398 393.10085901 244.25475887 400.18789658 251.34960938 407.27416992 C259.57855617 415.49317322 267.80576455 423.71391193 276.03085899 431.9367705 C280.38910014 436.29370397 284.74822787 440.64974226 289.10943604 445.00370598 C293.20889844 449.09641344 297.3060438 453.19142576 301.40137482 457.28826714 C302.90985077 458.79646653 304.41919275 460.30380028 305.92943573 461.81023026 C307.98113339 463.85699888 310.02977646 465.90677524 312.07763672 467.9573822 C312.68462465 468.56145729 313.29161259 469.16553239 313.91699409 469.78791279 C318 473.88587879 318 473.88587879 318 475 C266.52 475.33 215.04 475.66 162 476 C173.26125 487.24964844 184.5225 498.49929688 196.125 510.08984375 C203.23464951 517.19438706 210.34417307 524.29905566 217.453125 531.40429688 C221.18551153 535.13471961 224.91792353 538.86511686 228.65039062 542.59545898 C229.11822448 543.06302909 229.58605834 543.5305992 230.06806898 544.0123381 C237.16067398 551.10085901 244.25475887 558.18789658 251.34960938 565.27416992 C259.57855617 573.49317322 267.80576455 581.71391193 276.03085899 589.9367705 C280.38910014 594.29370397 284.74822787 598.64974226 289.10943604 603.00370598 C293.20889844 607.09641344 297.3060438 611.19142576 301.40137482 615.28826714 C302.90985077 616.79646653 304.41919275 618.30380028 305.92943573 619.81023026 C307.98113339 621.85699888 310.02977646 623.90677524 312.07763672 625.9573822 C312.68462465 626.56145729 313.29161259 627.16553239 313.91699409 627.78791279 C318 631.88587879 318 631.88587879 318 633 C108.78 633 -100.44 633 -316 633 C-311.96683946 628.29464604 -307.95959279 623.8168259 -303.58389282 619.46363831 C-302.96623342 618.84512448 -302.34857402 618.22661065 -301.71219766 617.58935398 C-299.66026712 615.53578796 -297.60480458 613.48579559 -295.54931641 611.43579102 C-294.07040277 609.9571597 -292.59170978 608.47830766 -291.11322021 606.99925232 C-287.11180667 602.99755253 -283.10732314 598.99893779 -279.10227251 595.00087857 C-274.91244763 590.81731602 -270.72546509 586.63091077 -266.53817749 582.44480896 C-258.614288 574.5240243 -250.68785341 566.60579166 -242.7604965 558.68847746 C-232.04432528 547.98558667 -221.33209959 537.27874845 -210.61964989 526.57213306 C-193.74965237 509.71153108 -176.87439762 492.85620093 -160 476 C-211.48 475.67 -262.96 475.34 -316 475 C-311.96683946 470.29464604 -307.95959279 465.8168259 -303.58389282 461.46363831 C-302.96623342 460.84512448 -302.34857402 460.22661065 -301.71219766 459.58935398 C-299.66026712 457.53578796 -297.60480458 455.48579559 -295.54931641 453.43579102 C-294.07040277 451.9571597 -292.59170978 450.47830766 -291.11322021 448.99925232 C-287.11180667 444.99755253 -283.10732314 440.99893779 -279.10227251 437.00087857 C-274.91244763 432.81731602 -270.72546509 428.63091077 -266.53817749 424.44480896 C-258.614288 416.5240243 -250.68785341 408.60579166 -242.7604965 400.68847746 C-232.04432528 389.98558667 -221.33209959 379.27874845 -210.61964989 368.57213306 C-193.74965237 351.71153108 -176.87439762 334.85620093 -160 318 C-211.48 317.67 -262.96 317.34 -316 317 C-312.22145977 312.59170307 -308.51646309 308.37107113 -304.42032814 304.29728031 C-303.62484978 303.50007118 -303.62484978 303.50007118 -302.81330115 302.68675682 C-301.04778191 300.91860508 -299.2787395 299.15402271 -297.50967407 297.38941956 C-296.22559424 296.10490333 -294.94173431 294.82016725 -293.65807474 293.53523105 C-290.13938559 290.01431029 -286.61759342 286.49650783 -283.09527946 282.97921383 C-279.29394631 279.18220414 -275.49550867 275.38229978 -271.69671631 271.58274841 C-265.11773935 265.00324742 -258.53693575 258.42557804 -251.95488358 251.84915352 C-242.4383739 242.34077516 -232.9246308 232.82963263 -223.41155796 223.31781589 C-207.97668583 207.88513171 -192.53958242 192.45468144 -177.10107422 177.02563477 C-162.10511021 162.03885151 -147.11019814 147.05101704 -132.11669922 132.06176758 C-130.73011079 130.67557323 -130.73011079 130.67557323 -129.31551047 129.26137496 C-124.67805498 124.62522452 -120.04062016 119.98905341 -115.40319562 115.35287201 C-76.93866779 76.8987088 -38.47051804 38.44817039 0 0 Z " fill="#FD9811" transform="translate(449,120)"/>
<path d="M0 0 C4.28570187 1.65535985 7.14784653 4.87893116 10.31158447 8.07780457 C11.25767016 9.02238532 11.25767016 9.02238532 12.22286868 9.98604852 C14.33858178 12.1008078 16.44705864 14.22263783 18.55566406 16.34448242 C20.06991114 17.86093044 21.58460621 19.37693121 23.09971619 20.89251709 C26.36399304 24.15972984 29.62508464 27.43007791 32.88376617 30.70287132 C38.03959809 35.88095772 43.20249776 41.05195775 48.36639404 46.22200012 C56.53807256 54.40506807 64.70506799 62.59279165 72.87004352 70.7825473 C87.47788637 85.43465572 102.09122346 100.08127913 116.70986533 114.72261316 C121.8384063 119.85954632 126.96412409 124.99927511 132.08756971 130.14129007 C135.28220358 133.34660013 138.47889408 136.5498533 141.67608833 139.75260925 C143.15395935 141.23393824 144.63095853 142.71613765 146.10700035 144.19928932 C155.22746362 153.3990471 155.22746362 153.3990471 164.84226608 162.07062626 C170.72472756 167.33052722 176.19581115 173.05787072 181.76953125 178.64013672 C183.25817044 180.12741938 184.74702195 181.61448955 186.23606873 183.10136414 C190.26053007 187.12128386 194.28184285 191.14433927 198.30244446 195.16811895 C202.51165361 199.37986532 206.72330816 203.58916523 210.93457031 207.79885864 C217.99740473 214.85987674 225.05813422 221.92299452 232.11767578 228.98730469 C240.29000411 237.16508935 248.46594861 245.33924539 256.6437521 253.5115546 C263.66480165 260.52807526 270.68391205 267.54653132 277.70138645 274.56662762 C281.89320078 278.76000407 286.08569529 282.95269447 290.27993774 287.14364243 C294.2154582 291.07628693 298.14854869 295.01134521 302.07972908 298.94832802 C303.52693751 300.39686491 304.97500905 301.84454004 306.42397881 303.29131508 C308.39205883 305.25668732 310.35707225 307.22507338 312.32128906 309.19430542 C312.9033653 309.77415093 313.48544153 310.35399645 314.08515644 310.95141304 C318 314.88584923 318 314.88584923 318 316 C108.78 316 -100.44 316 -316 316 C-311.97133205 311.29988739 -307.96818662 306.82394341 -303.59976196 302.47277832 C-302.98366353 301.8551199 -302.3675651 301.23746148 -301.73279703 300.60108614 C-299.6857158 298.55004411 -297.63511233 296.50256193 -295.58447266 294.45507812 C-294.10869498 292.97794421 -292.63312986 291.5005979 -291.15776062 290.02305603 C-287.16210757 286.02285475 -283.16331046 282.02581048 -279.16379595 278.02947044 C-274.97133461 273.83954666 -270.7813203 269.64717693 -266.59091187 265.4552002 C-259.55329132 258.41576184 -252.51356846 251.37843104 -245.47265625 244.34228516 C-237.34332318 236.21839184 -229.21759589 228.09090528 -221.09373629 219.96153879 C-214.10855649 212.97181431 -207.12142139 205.98404891 -200.13266218 198.99790335 C-195.96308428 194.82988103 -191.79417676 190.66119423 -187.62703323 186.49073792 C-183.70752377 182.56833012 -179.78555754 178.64839519 -175.86171913 174.73031807 C-174.42580435 173.29572047 -172.99073044 171.86028065 -171.5565815 170.42391777 C-159.35973222 158.20998373 -159.35973222 158.20998373 -155.00595093 154.50694275 C-148.37618681 148.86503344 -142.37317075 142.50306001 -136.23046875 136.34399414 C-134.74183788 134.85508087 -133.25298614 133.36638841 -131.76393127 131.87789917 C-127.73956432 127.85381815 -123.71827976 123.82666976 -119.69755554 119.79894948 C-115.48864346 115.58376997 -111.27688377 111.37143769 -107.06542969 107.15879822 C-99.09863683 99.18890203 -91.13439571 91.21646099 -83.17107582 83.24309486 C-74.10170129 74.16252819 -65.02947415 65.08481379 -55.95701027 56.00733387 C-37.30150523 37.34138705 -18.6495724 18.67187413 0 0 Z " fill="#15923F" transform="translate(449,437)"/>
<path d="M0 0 C4.28570187 1.65535985 7.14784653 4.87893116 10.31158447 8.07780457 C11.25767016 9.02238532 11.25767016 9.02238532 12.22286868 9.98604852 C14.33858178 12.1008078 16.44705864 14.22263783 18.55566406 16.34448242 C20.06991114 17.86093044 21.58460621 19.37693121 23.09971619 20.89251709 C26.36399304 24.15972984 29.62508464 27.43007791 32.88376617 30.70287132 C38.03959809 35.88095772 43.20249776 41.05195775 48.36639404 46.22200012 C56.53807256 54.40506807 64.70506799 62.59279165 72.87004352 70.7825473 C87.47788637 85.43465572 102.09122346 100.08127913 116.70986533 114.72261316 C121.8384063 119.85954632 126.96412409 124.99927511 132.08756971 130.14129007 C135.28220358 133.34660013 138.47889408 136.5498533 141.67608833 139.75260925 C143.15395935 141.23393824 144.63095853 142.71613765 146.10700035 144.19928932 C155.22746362 153.3990471 155.22746362 153.3990471 164.84226608 162.07062626 C170.72472756 167.33052722 176.19581115 173.05787072 181.76953125 178.64013672 C183.25817044 180.12741938 184.74702195 181.61448955 186.23606873 183.10136414 C190.26053007 187.12128386 194.28184285 191.14433927 198.30244446 195.16811895 C202.51165361 199.37986532 206.72330816 203.58916523 210.93457031 207.79885864 C217.99740473 214.85987674 225.05813422 221.92299452 232.11767578 228.98730469 C240.29000411 237.16508935 248.46594861 245.33924539 256.6437521 253.5115546 C263.66480165 260.52807526 270.68391205 267.54653132 277.70138645 274.56662762 C281.89320078 278.76000407 286.08569529 282.95269447 290.27993774 287.14364243 C294.2154582 291.07628693 298.14854869 295.01134521 302.07972908 298.94832802 C303.52693751 300.39686491 304.97500905 301.84454004 306.42397881 303.29131508 C308.39205883 305.25668732 310.35707225 307.22507338 312.32128906 309.19430542 C312.9033653 309.77415093 313.48544153 310.35399645 314.08515644 310.95141304 C318 314.88584923 318 314.88584923 318 316 C294.93825263 320.94652753 271.82646108 324.03928137 248.3125 325.8125 C247.43486795 325.88068562 246.5572359 325.94887123 245.65300894 326.01912308 C198.47000863 329.58342043 161.25521607 322.58754823 124.7023468 291.17887878 C105.58243427 274.35154449 87.8574447 256.1758389 70.5625 237.5 C69.69207959 236.56212662 68.82165917 235.62425324 67.92486238 234.65795946 C45.16372689 210.10243813 23.21168953 184.90385626 2 159 C-2.23124542 160.56467692 -4.54742634 163.72644202 -7.29548645 167.12490845 C-8.38563185 168.44536648 -9.47611515 169.7655456 -10.56688213 171.08549023 C-11.14836462 171.79376127 -11.72984711 172.50203231 -12.32895029 173.2317661 C-30.78496677 195.65355702 -50.09631318 217.3081653 -69.8125 238.625 C-71.08743718 240.00577689 -71.08743718 240.00577689 -72.38813066 241.41444826 C-112.22767988 284.45892115 -149.6272905 323.97355127 -211.03788549 326.75629187 C-222.79590073 327.15302405 -234.46529065 326.58370134 -246.1875 325.6875 C-247.07172905 325.62182611 -247.95595811 325.55615221 -248.86698198 325.4884882 C-271.50639853 323.77704854 -293.78497494 320.69139543 -316 316 C-312.0577852 311.28098806 -307.95538661 306.81119397 -303.59976196 302.47277832 C-302.98366353 301.8551199 -302.3675651 301.23746148 -301.73279703 300.60108614 C-299.6857158 298.55004411 -297.63511233 296.50256193 -295.58447266 294.45507812 C-294.10869498 292.97794421 -292.63312986 291.5005979 -291.15776062 290.02305603 C-287.16210757 286.02285475 -283.16331046 282.02581048 -279.16379595 278.02947044 C-274.97133461 273.83954666 -270.7813203 269.64717693 -266.59091187 265.4552002 C-259.55329132 258.41576184 -252.51356846 251.37843104 -245.47265625 244.34228516 C-237.34332318 236.21839184 -229.21759589 228.09090528 -221.09373629 219.96153879 C-214.10855649 212.97181431 -207.12142139 205.98404891 -200.13266218 198.99790335 C-195.96308428 194.82988103 -191.79417676 190.66119423 -187.62703323 186.49073792 C-183.70752377 182.56833012 -179.78555754 178.64839519 -175.86171913 174.73031807 C-174.42580435 173.29572047 -172.99073044 171.86028065 -171.5565815 170.42391777 C-159.35973222 158.20998373 -159.35973222 158.20998373 -155.00595093 154.50694275 C-148.37618681 148.86503344 -142.37317075 142.50306001 -136.23046875 136.34399414 C-134.74183788 134.85508087 -133.25298614 133.36638841 -131.76393127 131.87789917 C-127.73956432 127.85381815 -123.71827976 123.82666976 -119.69755554 119.79894948 C-115.48864346 115.58376997 -111.27688377 111.37143769 -107.06542969 107.15879822 C-99.09863683 99.18890203 -91.13439571 91.21646099 -83.17107582 83.24309486 C-74.10170129 74.16252819 -65.02947415 65.08481379 -55.95701027 56.00733387 C-37.30150523 37.34138705 -18.6495724 18.67187413 0 0 Z " fill="#C2C4C6" transform="translate(449,279)"/>
<path d="M0 0 C0.328125 2.53125 0.328125 2.53125 0.25 5.5 C0.23453125 6.4796875 0.2190625 7.459375 0.203125 8.46875 C0 11 0 11 -1 13 C-4.30041465 13.35913603 -7.58112243 13.44458403 -10.8984375 13.55859375 C-13.91966163 13.78233144 -13.91966163 13.78233144 -15.90234375 15.1484375 C-17.51183855 17.86338602 -17.28827353 20.06352042 -17.1875 23.1875 C-17.16042969 24.27417969 -17.13335938 25.36085938 -17.10546875 26.48046875 C-17.07066406 27.31191406 -17.03585937 28.14335938 -17 29 C-16.40461426 29.01981934 -15.80922852 29.03963867 -15.19580078 29.06005859 C-12.50507847 29.15516126 -9.81514852 29.26489842 -7.125 29.375 C-6.18785156 29.4059375 -5.25070312 29.436875 -4.28515625 29.46875 C-3.38925781 29.50742187 -2.49335937 29.54609375 -1.5703125 29.5859375 C-0.32918701 29.63306885 -0.32918701 29.63306885 0.93701172 29.68115234 C3 30 3 30 5 32 C5.265625 34.53125 5.265625 34.53125 5.25 37.5 C5.25773437 38.96953125 5.25773437 38.96953125 5.265625 40.46875 C5 43 5 43 3 45 C0.3984375 45.1953125 0.3984375 45.1953125 -2.625 45.125 C-3.62789062 45.10695313 -4.63078125 45.08890625 -5.6640625 45.0703125 C-6.82035156 45.03550781 -6.82035156 45.03550781 -8 45 C-7.96519531 46.10859375 -7.93039062 47.2171875 -7.89453125 48.359375 C-7.86638651 49.82290148 -7.83908708 51.28644439 -7.8125 52.75 C-7.78736328 53.47960937 -7.76222656 54.20921875 -7.73632812 54.9609375 C-7.69250512 58.1746246 -7.77811732 60.56859962 -9.26171875 63.453125 C-12.52312347 66.35540875 -16.2136848 66.12103508 -20.421875 66.09765625 C-21.44667969 66.09443359 -22.47148438 66.09121094 -23.52734375 66.08789062 C-24.59082031 66.07951172 -25.65429688 66.07113281 -26.75 66.0625 C-27.82894531 66.05798828 -28.90789062 66.05347656 -30.01953125 66.04882812 C-32.67974383 66.03705727 -35.33984365 66.02061399 -38 66 C-38 67.98 -38 69.96 -38 72 C-37.33991943 72.0093457 -36.67983887 72.01869141 -35.99975586 72.02832031 C-32.97827535 72.08235573 -29.95828824 72.16593693 -26.9375 72.25 C-25.89916016 72.26417969 -24.86082031 72.27835938 -23.79101562 72.29296875 C-17.37388042 72.49668733 -13.14486146 73.0371585 -8 77 C-4.21339784 81.28993374 -4.5161336 85.92905545 -4.5625 91.375 C-4.54251953 92.2 -4.52253906 93.025 -4.50195312 93.875 C-4.50661993 99.7551684 -5.39653755 103.29272166 -9 108 C-14.63430249 112.38696005 -19.33361576 112.54089985 -26.3125 112.3125 C-27.21806641 112.30283203 -28.12363281 112.29316406 -29.05664062 112.28320312 C-35.660111 112.1699445 -35.660111 112.1699445 -38 111 C-38.103125 112.27875 -38.20625 113.5575 -38.3125 114.875 C-38.48828125 117.0546875 -38.48828125 117.0546875 -39 119 C-42.23914229 121.15942819 -43.24859733 121.27232978 -47 121.25 C-48.299375 121.25773438 -48.299375 121.25773438 -49.625 121.265625 C-52 121 -52 121 -55 119 C-55.35644531 116.12670898 -55.35644531 116.12670898 -55.328125 112.49609375 C-55.32296875 111.19865234 -55.3178125 109.90121094 -55.3125 108.56445312 C-55.3021875 107.88777588 -55.291875 107.21109863 -55.28125 106.51391602 C-55.25006828 104.44203718 -55.24027769 102.37091842 -55.234375 100.29882812 C-55.15365758 90.15365758 -55.15365758 90.15365758 -54 89 C-51.64686445 88.92728259 -49.29166332 88.91629132 -46.9375 88.9375 C-45.00197266 88.95103516 -45.00197266 88.95103516 -43.02734375 88.96484375 C-42.02832031 88.97644531 -41.02929688 88.98804688 -40 89 C-39.71125 90.134375 -39.4225 91.26875 -39.125 92.4375 C-38.75375 93.613125 -38.3825 94.78875 -38 96 C-34.99686252 97.50156874 -32.20932478 97.09281204 -28.875 97.0625 C-27.59367188 97.05347656 -26.31234375 97.04445313 -24.9921875 97.03515625 C-24.00476563 97.02355469 -23.01734375 97.01195312 -22 97 C-22 94.03 -22 91.06 -22 88 C-23.57587891 87.92652344 -23.57587891 87.92652344 -25.18359375 87.8515625 C-46.57040936 86.75865673 -46.57040936 86.75865673 -52 81 C-54.11340273 76.84787307 -54.32842797 73.18710292 -54.375 68.5625 C-54.40335938 67.28503906 -54.43171875 66.00757813 -54.4609375 64.69140625 C-53.92732364 60.41797326 -52.68398121 58.32302436 -50 55 C-44.56160191 51.05716139 -39.30254969 50.79059676 -32.75 50.4375 C-32.00492188 50.39431641 -31.25984375 50.35113281 -30.4921875 50.30664062 C-28.661651 50.20103275 -26.83084824 50.10005799 -25 50 C-24.67 48.35 -24.34 46.7 -24 45 C-38.19 45 -52.38 45 -67 45 C-66.98839844 49.66898438 -66.97679687 54.33796875 -66.96484375 59.1484375 C-66.95973585 62.10156388 -66.954922 65.05468484 -66.95117188 68.0078125 C-66.94518783 72.69792813 -66.93809918 77.3880243 -66.92456055 82.078125 C-66.91371671 85.85822386 -66.90771998 89.63830186 -66.90512276 93.41841507 C-66.90327122 94.86254836 -66.89965576 96.30668047 -66.89426994 97.7508049 C-66.8870398 99.76924277 -66.88659177 101.78770153 -66.88647461 103.80615234 C-66.884254 104.95642914 -66.88203339 106.10670593 -66.87974548 107.2918396 C-67 110 -67 110 -68 112 C-72.95 112 -77.9 112 -83 112 C-84.3951713 109.20965739 -84.11955162 106.92774028 -84.11352539 103.80615234 C-84.11341209 101.85435562 -84.11341209 101.85435562 -84.11329651 99.86312866 C-84.10818947 98.43739789 -84.10297347 97.0116675 -84.09765625 95.5859375 C-84.09579147 94.13148039 -84.09436785 92.67702266 -84.09336853 91.2225647 C-84.08954805 87.39207224 -84.07972176 83.56161763 -84.06866455 79.73114014 C-84.05844035 75.82336947 -84.05386874 71.91559269 -84.04882812 68.0078125 C-84.03809908 60.33852241 -84.02050607 52.66927132 -84 45 C-88.62 45 -93.24 45 -98 45 C-97.99476318 46.99409912 -97.98952637 48.98819824 -97.98413086 51.04272461 C-97.96803377 57.61654057 -97.95652797 64.19035188 -97.94818783 70.76418209 C-97.94295964 74.751572 -97.93586316 78.73894067 -97.92456055 82.72631836 C-97.91372939 86.57125114 -97.90772268 90.41616345 -97.90512276 94.26111031 C-97.90326892 95.73118983 -97.89964909 97.20126818 -97.89426994 98.67133904 C-97.88705645 100.72354467 -97.88600919 102.77566467 -97.88647461 104.82788086 C-97.884254 105.99814316 -97.88203339 107.16840546 -97.87974548 108.37413025 C-98 111 -98 111 -99 112 C-101.5327765 112.07320163 -104.03103918 112.09227569 -106.5625 112.0625 C-109.016875 112.041875 -111.47125 112.02125 -114 112 C-114.33 104.08 -114.66 96.16 -115 88 C-118.3 87.67 -121.6 87.34 -125 87 C-125.0825 88.175625 -125.165 89.35125 -125.25 90.5625 C-126.01160959 96.45714955 -128.11451394 100.41447763 -132.75 104.3125 C-139.79547602 107.97072793 -146.59288964 108.31856485 -154.375 108.25 C-155.27605469 108.25773438 -156.17710937 108.26546875 -157.10546875 108.2734375 C-157.96527344 108.27085937 -158.82507813 108.26828125 -159.7109375 108.265625 C-160.87568604 108.26224121 -160.87568604 108.26224121 -162.06396484 108.25878906 C-164 108 -164 108 -166 106 C-166.265625 103.46875 -166.265625 103.46875 -166.25 100.5 C-166.25515625 99.5203125 -166.2603125 98.540625 -166.265625 97.53125 C-166 95 -166 95 -164 93 C-162.07641602 92.72875977 -162.07641602 92.72875977 -159.75390625 92.69140625 C-158.91666016 92.66626953 -158.07941406 92.64113281 -157.21679688 92.61523438 C-155.45124376 92.58015716 -153.68561073 92.54888975 -151.91992188 92.52148438 C-151.08138672 92.49505859 -150.24285156 92.46863281 -149.37890625 92.44140625 C-148.22757202 92.42122437 -148.22757202 92.42122437 -147.05297852 92.40063477 C-144.48164733 91.89884449 -143.58787441 91.0497566 -142 89 C-141.32952537 85.60292853 -141.41936866 82.40905331 -142 79 C-144.94941927 75.64376428 -148.50476859 75.76695245 -152.75 75.375 C-154.19632812 75.29378906 -154.19632812 75.29378906 -155.671875 75.2109375 C-158 75 -158 75 -159 74 C-159.09873816 72.00200428 -159.12971799 70.00042842 -159.125 68 C-159.12757813 66.906875 -159.13015625 65.81375 -159.1328125 64.6875 C-159 62 -159 62 -158 61 C-154.99538798 60.75454002 -151.99175646 60.61594001 -148.98046875 60.4765625 C-145.72701847 59.95635158 -144.27080533 59.36812556 -142 57 C-141.40914 55.06255801 -141.40914 55.06255801 -141.5625 53 C-141.56443359 51.9790625 -141.56443359 51.9790625 -141.56640625 50.9375 C-142.16301172 48.27158726 -142.68732668 47.50529032 -145 46 C-147.76906994 45.64882897 -150.35036753 45.44326864 -153.125 45.375 C-160.89527027 45.10472973 -160.89527027 45.10472973 -162 44 C-162.12514928 42.02380553 -162.1757276 40.04261827 -162.1875 38.0625 C-162.20876953 36.44021484 -162.20876953 36.44021484 -162.23046875 34.78515625 C-162 32 -162 32 -160 30 C-157.43381183 29.79826498 -155.00212726 29.71570033 -152.4375 29.75 C-151.71312744 29.75821777 -150.98875488 29.76643555 -150.24243164 29.77490234 C-142.21754469 29.94206876 -135.48266037 30.36660892 -129.44140625 36.18359375 C-124.31981163 42.63763575 -124.15547912 51.1065448 -125 59 C-126.44431557 62.85150819 -128.4242007 65.81091515 -131 69 C-127.5233662 71.14336161 -124.78770805 71.21277626 -120.75 71.125 C-119.67234375 71.10695313 -118.5946875 71.08890625 -117.484375 71.0703125 C-116.66453125 71.04710937 -115.8446875 71.02390625 -115 71 C-114.9906543 69.86457764 -114.98130859 68.72915527 -114.97167969 67.55932617 C-114.9318243 63.34896527 -114.86607871 59.13933855 -114.79248047 54.92944336 C-114.76424486 53.10694811 -114.7430432 51.28432981 -114.72900391 49.46166992 C-114.7076096 46.84229417 -114.66098021 44.22440185 -114.609375 41.60546875 C-114.60814636 40.78974899 -114.60691772 39.97402924 -114.60565186 39.1335907 C-114.45962889 33.50137759 -114.45962889 33.50137759 -112.43029785 31.28771973 C-109.15882431 29.55429392 -106.18417803 29.56017642 -102.56933594 29.56762695 C-101.82748047 29.5574353 -101.085625 29.54724365 -100.32128906 29.53674316 C-97.87557423 29.50661177 -95.43025106 29.49734726 -92.984375 29.48828125 C-91.28613991 29.47143462 -89.5879173 29.4532844 -87.88970947 29.43388367 C-83.42472226 29.38637557 -78.9597856 29.35657153 -74.49462891 29.33044434 C-69.93642186 29.30064286 -65.37838903 29.25411112 -60.8203125 29.20898438 C-51.88029946 29.1229421 -42.94025056 29.05560095 -34 29 C-34.03480469 27.91460938 -34.06960938 26.82921875 -34.10546875 25.7109375 C-34.13362388 24.26564058 -34.16092219 22.82032679 -34.1875 21.375 C-34.21263672 20.66214844 -34.23777344 19.94929687 -34.26367188 19.21484375 C-34.34295375 13.45369419 -33.07117835 9.45542411 -29.2734375 4.953125 C-22.01054567 -1.56255574 -8.84912522 -5.89941681 0 0 Z " fill="#000000" transform="translate(633,826)"/>
<path d="M0 0 C2.59873199 -0.37473011 2.59873199 -0.37473011 5.95959473 -0.3742218 C7.229991 -0.38123611 8.50038727 -0.38825043 9.8092804 -0.39547729 C11.2250687 -0.3880489 12.64085545 -0.38031772 14.05664062 -0.37231445 C15.541359 -0.37474129 17.02607575 -0.37845956 18.51078796 -0.38337708 C22.55001799 -0.39280461 26.58900649 -0.38334517 30.6282177 -0.37004495 C34.84870326 -0.35875313 39.06917653 -0.36283619 43.28967285 -0.36479187 C50.37821412 -0.36567557 57.46665988 -0.35457869 64.55517578 -0.33618164 C72.75881081 -0.31501284 80.96230589 -0.31150368 89.1659627 -0.3177436 C97.04687383 -0.32343189 104.92773552 -0.31779793 112.80863953 -0.30657005 C116.16746431 -0.30191695 119.52625892 -0.30105328 122.88508606 -0.3031559 C126.83803376 -0.30503508 130.79083836 -0.29696363 134.74375343 -0.2810955 C136.19743572 -0.2768412 137.65113249 -0.27600976 139.10481834 -0.27878571 C141.08335391 -0.28199156 143.06189788 -0.27173025 145.04040527 -0.26069641 C146.70403233 -0.25761711 146.70403233 -0.25761711 148.40126801 -0.25447559 C151 0 151 0 153 2 C153.23046875 4.78515625 153.23046875 4.78515625 153.1875 8.0625 C153.17783203 9.68865234 153.17783203 9.68865234 153.16796875 11.34765625 C153 14 153 14 152 15 C150.14712498 15.07226502 148.29166122 15.0838122 146.4375 15.0625 C145.42558594 15.05347656 144.41367187 15.04445313 143.37109375 15.03515625 C142.58863281 15.02355469 141.80617188 15.01195312 141 15 C141.00222061 15.82463242 141.00444122 16.64926483 141.00672913 17.49888611 C141.02673052 25.25398257 141.04197335 33.00906661 141.05181217 40.76418209 C141.05704036 44.751572 141.06413684 48.73894067 141.07543945 52.72631836 C141.08627061 56.57125114 141.09227732 60.41616345 141.09487724 64.26111031 C141.09673108 65.73118983 141.10035091 67.20126818 141.10573006 68.67133904 C141.11294355 70.72354467 141.11399081 72.77566467 141.11352539 74.82788086 C141.115746 75.99814316 141.11796661 77.16840546 141.12025452 78.37413025 C141 81 141 81 140 82 C137.66839945 82.09909302 135.33370058 82.12970504 133 82.125 C131.72125 82.12757813 130.4425 82.13015625 129.125 82.1328125 C126 82 126 82 125 81 C124.91224395 78.85441173 124.89304781 76.70595579 124.90234375 74.55859375 C124.90484131 73.38353271 124.90733887 72.20847168 124.90991211 70.99780273 C124.91901611 69.49290283 124.92812012 67.98800293 124.9375 66.4375 C124.958125 61.673125 124.97875 56.90875 125 52 C109.655 52.495 109.655 52.495 94 53 C97.8134489 59.02811375 97.8134489 59.02811375 101.62817383 65.05541992 C102.63137533 66.6425167 103.62952619 68.23281335 104.62353516 69.82568359 C105.69050485 71.51110965 106.80974509 73.16350146 107.94921875 74.80078125 C109.28354274 77.59343703 108.91156719 79.09955893 108 82 C102.6523306 82.88775539 98.269513 83.18155246 93 82 C89.37895161 78.45801381 87.31556976 74.52925591 85.06347656 70.03271484 C83.2706458 66.60592215 81.12367236 63.41558315 79 60.1875 C78.24948862 59.01464999 77.49944526 57.84150029 76.75 56.66796875 C75.24675199 54.1789401 75.24675199 54.1789401 74 53 C73.84820622 50.69098304 73.77818878 48.37632931 73.75 46.0625 C73.72421875 44.79535156 73.6984375 43.52820313 73.671875 42.22265625 C73.78015625 41.15917969 73.8884375 40.09570312 74 39 C77.52200877 36.65199415 79.44641449 36.65523117 83.625 36.4375 C87.6317755 36.57346982 87.6317755 36.57346982 91 35 C91.08651611 33.58429877 91.10704904 32.164405 91.09765625 30.74609375 C91.09515869 29.9770874 91.09266113 29.20808105 91.09008789 28.41577148 C91.08098389 27.43294189 91.07187988 26.4501123 91.0625 25.4375 C91.041875 22.323125 91.02125 19.20875 91 16 C78.13 15.505 78.13 15.505 65 15 C65.04125 17.124375 65.0825 19.24875 65.125 21.4375 C65.10780077 29.95972049 64.76603425 37.29893316 59 44 C53.2360279 48.19197971 48.3056291 49.1406621 41.3125 49.125 C40.15363281 49.12757813 38.99476563 49.13015625 37.80078125 49.1328125 C35 49 35 49 34 48 C33.90126184 46.00200428 33.87028201 44.00042842 33.875 42 C33.87242187 40.906875 33.86984375 39.81375 33.8671875 38.6875 C34 36 34 36 35 35 C36.63802872 34.63021574 38.28587044 34.30331217 39.9375 34 C43.58532599 33.3496481 43.58532599 33.3496481 47 32 C48.24953205 28.63647978 48.10109961 25.30116397 48.0625 21.75 C48.041875 19.8525 48.02125 17.955 48 16 C37.11 15.505 37.11 15.505 26 15 C26.09695353 20.7661837 26.19969554 26.53165164 26.31738281 32.29736328 C26.35565327 34.2585622 26.39050954 36.21983084 26.421875 38.18115234 C26.4675674 41.00122997 26.525555 43.82082838 26.5859375 46.640625 C26.59748871 47.51680481 26.60903992 48.39298462 26.62094116 49.29571533 C26.64081085 50.11626404 26.66068054 50.93681274 26.68115234 51.78222656 C26.69447601 52.50170471 26.70779968 53.22118286 26.7215271 53.96246338 C27.04999667 56.36581671 27.70911647 57.9491321 29 60 C35.02981981 63.57867355 40.99549313 63.50490886 47.875 63.625 C49.95582888 63.67575192 52.03657148 63.7302276 54.1171875 63.7890625 C55.48786377 63.81540771 55.48786377 63.81540771 56.88623047 63.84228516 C59 64 59 64 60 65 C60.12514928 66.97619447 60.1757276 68.95738173 60.1875 70.9375 C60.20167969 72.01902344 60.21585937 73.10054687 60.23046875 74.21484375 C60 77 60 77 58 79 C55.62084961 79.25878906 55.62084961 79.25878906 52.65234375 79.265625 C51.57146484 79.26820313 50.49058594 79.27078125 49.37695312 79.2734375 C47.67442383 79.26183594 47.67442383 79.26183594 45.9375 79.25 C44.82955078 79.25773438 43.72160156 79.26546875 42.58007812 79.2734375 C32.00906435 79.24843215 23.87880727 78.48576019 16 71 C10.19141343 63.81569556 9.7035247 56.77384367 9.8046875 47.91015625 C9.8075174 46.96563095 9.81034729 46.02110565 9.81326294 45.04795837 C9.82439316 42.05267276 9.8494844 39.05769414 9.875 36.0625 C9.88503905 34.0227908 9.89416328 31.98307688 9.90234375 29.94335938 C9.92430904 24.9621226 9.95878924 19.98111322 10 15 C9.30132812 15.02320313 8.60265625 15.04640625 7.8828125 15.0703125 C6.97273438 15.08835937 6.06265625 15.10640625 5.125 15.125 C4.22007812 15.14820313 3.31515625 15.17140625 2.3828125 15.1953125 C0 15 0 15 -2 13 C-2.265625 10.72265625 -2.265625 10.72265625 -2.25 8.0625 C-2.25515625 7.18722656 -2.2603125 6.31195312 -2.265625 5.41015625 C-2 3 -2 3 0 0 Z M108 15 C107.67 22.26 107.34 29.52 107 37 C112.94 37 118.88 37 125 37 C125 29.74 125 22.48 125 15 C119.39 15 113.78 15 108 15 Z " fill="#000000" transform="translate(286,856)"/>
<path d="M0 0 C5.15851635 4.19879237 7.19323997 7.71670438 8.6875 14.1875 C8.90614986 17.17402762 8.87916702 20.13267647 8.8125 23.125 C8.80347656 23.90423828 8.79445313 24.68347656 8.78515625 25.48632812 C8.76183691 27.38685447 8.72597586 29.28722008 8.6875 31.1875 C9.31398438 31.17589844 9.94046875 31.16429687 10.5859375 31.15234375 C11.40320313 31.14332031 12.22046875 31.13429688 13.0625 31.125 C14.28066406 31.10759766 14.28066406 31.10759766 15.5234375 31.08984375 C17.6875 31.1875 17.6875 31.1875 19.6875 32.1875 C19.71435938 34.33326637 19.73383088 36.47912645 19.75 38.625 C19.76160156 39.81996094 19.77320313 41.01492188 19.78515625 42.24609375 C19.6875 45.1875 19.6875 45.1875 18.6875 46.1875 C17.00141034 46.25955511 15.31249341 46.27136068 13.625 46.25 C12.70589844 46.24097656 11.78679687 46.23195313 10.83984375 46.22265625 C10.12957031 46.21105469 9.41929687 46.19945312 8.6875 46.1875 C8.68972061 46.99738373 8.69194122 47.80726746 8.69422913 48.64169312 C8.71424377 56.26403267 8.72948014 63.88635954 8.73931217 71.50871849 C8.74453678 75.4276987 8.7516268 79.34665726 8.76293945 83.265625 C8.77378329 87.04572386 8.77978002 90.82580186 8.78237724 94.60591507 C8.78422878 96.05004836 8.78784424 97.49418047 8.79323006 98.9383049 C8.8004602 100.95674277 8.80090823 102.97520153 8.80102539 104.99365234 C8.803246 106.14392914 8.80546661 107.29420593 8.80775452 108.4793396 C8.6875 111.1875 8.6875 111.1875 7.6875 113.1875 C2.7375 113.1875 -2.2125 113.1875 -7.3125 113.1875 C-8.7076713 110.39715739 -8.43205162 108.11524028 -8.42602539 104.99365234 C-8.42591209 103.04185562 -8.42591209 103.04185562 -8.42579651 101.05062866 C-8.42068947 99.62489789 -8.41547347 98.1991675 -8.41015625 96.7734375 C-8.40829147 95.31898039 -8.40686785 93.86452266 -8.40586853 92.4100647 C-8.40204805 88.57957224 -8.39222176 84.74911763 -8.38116455 80.91864014 C-8.37094035 77.01086947 -8.36636874 73.10309269 -8.36132812 69.1953125 C-8.35059908 61.52602241 -8.33300607 53.85677132 -8.3125 46.1875 C-12.9325 46.1875 -17.5525 46.1875 -22.3125 46.1875 C-22.30726318 48.18159912 -22.30202637 50.17569824 -22.29663086 52.23022461 C-22.28053377 58.80404057 -22.26902797 65.37785188 -22.26068783 71.95168209 C-22.25545964 75.939072 -22.24836316 79.92644067 -22.23706055 83.91381836 C-22.22622939 87.75875114 -22.22022268 91.60366345 -22.21762276 95.44861031 C-22.21576892 96.91868983 -22.21214909 98.38876818 -22.20676994 99.85883904 C-22.19955645 101.91104467 -22.19850919 103.96316467 -22.19897461 106.01538086 C-22.196754 107.18564316 -22.19453339 108.35590546 -22.19224548 109.56163025 C-22.3125 112.1875 -22.3125 112.1875 -23.3125 113.1875 C-25.64410055 113.28659302 -27.97879942 113.31720504 -30.3125 113.3125 C-31.59125 113.31507813 -32.87 113.31765625 -34.1875 113.3203125 C-37.3125 113.1875 -37.3125 113.1875 -38.3125 112.1875 C-38.4709265 110.1166528 -38.56374422 108.04071971 -38.62890625 105.96484375 C-38.66701416 104.83038818 -38.70512207 103.69593262 -38.74438477 102.52709961 C-38.78748779 101.07440674 -38.83059082 99.62171387 -38.875 98.125 C-39.019375 93.525625 -39.16375 88.92625 -39.3125 84.1875 C-49.5425 83.8575 -59.7725 83.5275 -70.3125 83.1875 C-66.54518579 89.12622 -66.54518579 89.12622 -62.77441406 95.06274414 C-61.27561355 97.43061619 -59.79368643 99.80857976 -58.3125 102.1875 C-57.87744141 102.86151855 -57.44238281 103.53553711 -56.99414062 104.22998047 C-54.25650351 108.64153425 -54.25650351 108.64153425 -54.5625 111.625 C-54.81 112.140625 -55.0575 112.65625 -55.3125 113.1875 C-68.27075771 114.68845649 -68.27075771 114.68845649 -72.48046875 111.59375 C-74.35381795 108.8924267 -75.80931936 106.1135131 -77.3125 103.1875 C-78.71851745 100.8230482 -80.16108265 98.48341798 -81.60839844 96.14404297 C-83.49795694 93.0833962 -85.34344397 89.99687718 -87.18676758 86.90820312 C-88.32825203 85.03534712 -88.32825203 85.03534712 -90.3125 83.1875 C-90.54296875 80.4375 -90.54296875 80.4375 -90.5 77.1875 C-90.49033203 75.57875 -90.49033203 75.57875 -90.48046875 73.9375 C-90.3125 71.1875 -90.3125 71.1875 -89.3125 69.1875 C-84.1577374 67.4692458 -78.71256537 67.56176196 -73.3125 67.1875 C-72.9825 60.2575 -72.6525 53.3275 -72.3125 46.1875 C-74.89384766 46.20490234 -74.89384766 46.20490234 -77.52734375 46.22265625 C-79.76822809 46.23203234 -82.00911359 46.24113273 -84.25 46.25 C-85.95446289 46.26256836 -85.95446289 46.26256836 -87.69335938 46.27539062 C-88.77294922 46.27861328 -89.85253906 46.28183594 -90.96484375 46.28515625 C-92.46519165 46.29301147 -92.46519165 46.29301147 -93.99584961 46.30102539 C-96.3125 46.1875 -96.3125 46.1875 -97.3125 45.1875 C-97.38508946 43.00110547 -97.39623783 40.81249611 -97.375 38.625 C-97.36597656 37.42746094 -97.35695313 36.22992187 -97.34765625 34.99609375 C-97.33605469 34.06925781 -97.32445312 33.14242187 -97.3125 32.1875 C-94.10561929 30.58405965 -90.62067153 31.05827255 -87.09912109 31.07397461 C-85.82584206 31.07375557 -85.82584206 31.07375557 -84.52684021 31.0735321 C-81.71318023 31.07423034 -78.89958596 31.0820186 -76.0859375 31.08984375 C-74.13823482 31.09170825 -72.19053168 31.093132 -70.24282837 31.09413147 C-65.11029776 31.09795417 -59.97779533 31.10778235 -54.84527588 31.11883545 C-49.61039613 31.12905488 -44.37551184 31.13363023 -39.140625 31.13867188 C-28.86457093 31.14940483 -18.58853781 31.1664783 -8.3125 31.1875 C-8.39945958 28.58171134 -8.50631408 25.9793721 -8.625 23.375 C-8.64755859 22.63701172 -8.67011719 21.89902344 -8.69335938 21.13867188 C-8.88577661 16.93676725 -8.88577661 16.93676725 -10.63671875 13.19921875 C-13.51684242 11.46040283 -16.05730557 11.83872917 -19.3125 12.1875 C-22.20810524 14.35404549 -22.84324131 16.38912697 -23.5 19.875 C-23.9021875 22.0096875 -23.9021875 22.0096875 -24.3125 24.1875 C-29.2625 24.1875 -34.2125 24.1875 -39.3125 24.1875 C-40.42103906 16.42772657 -40.18968839 11.74074946 -36.5625 4.875 C-27.65939311 -5.75926656 -11.69787722 -6.40072527 0 0 Z M-55.3125 46.1875 C-55.6425 53.4475 -55.9725 60.7075 -56.3125 68.1875 C-50.3725 68.1875 -44.4325 68.1875 -38.3125 68.1875 C-38.28566799 64.70828265 -38.2657433 61.22926961 -38.25 57.75 C-38.24162109 56.75677734 -38.23324219 55.76355469 -38.22460938 54.74023438 C-38.22138672 53.79599609 -38.21816406 52.85175781 -38.21484375 51.87890625 C-38.20960693 51.00435791 -38.20437012 50.12980957 -38.19897461 49.22875977 C-38.08465191 47.19309794 -38.08465191 47.19309794 -39.3125 46.1875 C-42.0111905 46.11424564 -44.67752556 46.09527649 -47.375 46.125 C-51.3040625 46.1559375 -51.3040625 46.1559375 -55.3125 46.1875 Z " fill="#000000" transform="translate(755.3125,824.8125)"/>
<path d="M0 0 C1.14418396 -0.00426498 2.28836792 -0.00852997 3.46722412 -0.01292419 C5.35927582 -0.01224442 5.35927582 -0.01224442 7.28955078 -0.0115509 C8.62648615 -0.01454184 9.96342065 -0.01794421 11.300354 -0.02172852 C14.93662213 -0.03057836 18.57286674 -0.03290701 22.20914459 -0.0335443 C25.24115944 -0.0344925 28.27316877 -0.03816967 31.3051815 -0.0417164 C38.45557305 -0.04986432 45.605952 -0.05230028 52.75634766 -0.05158997 C60.14200015 -0.05098873 67.5275797 -0.06154886 74.91321373 -0.07733363 C81.24699435 -0.09038991 87.58075107 -0.09577469 93.91454506 -0.09513456 C97.70068549 -0.09487905 101.48676111 -0.09775919 105.27288818 -0.10831261 C108.83184587 -0.11796179 112.39067632 -0.11809482 115.94963837 -0.11079597 C117.88393262 -0.10924425 119.81822677 -0.11761859 121.75250244 -0.12623596 C123.46877838 -0.11994423 123.46877838 -0.11994423 125.21972656 -0.11352539 C126.71743088 -0.11434254 126.71743088 -0.11434254 128.24539185 -0.1151762 C130.60986328 0.13371277 130.60986328 0.13371277 132.60986328 2.13371277 C132.87548828 4.66496277 132.87548828 4.66496277 132.85986328 7.63371277 C132.86759766 9.10324402 132.86759766 9.10324402 132.87548828 10.60246277 C132.60986328 13.13371277 132.60986328 13.13371277 130.60986328 15.13371277 C128.22705078 15.32902527 128.22705078 15.32902527 125.48486328 15.25871277 C124.57478516 15.24066589 123.66470703 15.22261902 122.72705078 15.20402527 C122.02837891 15.18082214 121.32970703 15.15761902 120.60986328 15.13371277 C120.61208389 15.95834518 120.6143045 16.7829776 120.61659241 17.63259888 C120.6365938 25.38769534 120.65183663 33.14277937 120.66167545 40.89789486 C120.66690364 44.88528477 120.67400012 48.87265344 120.68530273 52.86003113 C120.6961339 56.70496391 120.7021406 60.54987622 120.70474052 64.39482307 C120.70659436 65.8649026 120.71021419 67.33498095 120.71559334 68.8050518 C120.72280683 70.85725744 120.7238541 72.90937744 120.72338867 74.96159363 C120.72560928 76.13185593 120.7278299 77.30211823 120.7301178 78.50784302 C120.60986328 81.13371277 120.60986328 81.13371277 119.60986328 82.13371277 C117.27826273 82.23280579 114.94356387 82.26341781 112.60986328 82.25871277 C111.33111328 82.26129089 110.05236328 82.26386902 108.73486328 82.26652527 C105.60986328 82.13371277 105.60986328 82.13371277 104.60986328 81.13371277 C104.52127682 78.39477192 104.49462849 75.68118007 104.51220703 72.94230652 C104.51362198 72.1224678 104.51503693 71.30262909 104.51649475 70.45794678 C104.52211039 67.82899895 104.53466549 65.20013503 104.54736328 62.57121277 C104.55237627 60.7932192 104.55693952 59.01522431 104.56103516 57.23722839 C104.57123576 52.86933119 104.59080796 48.50161636 104.60986328 44.13371277 C94.70986328 44.62871277 94.70986328 44.62871277 84.60986328 45.13371277 C83.78693478 48.42542676 83.52286543 50.53160665 83.60986328 53.82121277 C83.64749359 55.25822015 83.65649188 56.69696922 83.60986328 58.13371277 C81.96829592 59.77528013 80.11770527 59.42187269 77.85986328 59.50871277 C73.84148221 59.47996898 72.88514133 59.34157578 69.54736328 56.82121277 C65.99592635 51.89502606 65.98395163 47.01032776 66.60986328 41.13371277 C67.92716259 36.86680848 69.56628153 33.94248863 73.10986328 31.19621277 C77.34564958 29.39600359 80.86302415 29.01255543 85.46923828 29.03605652 C86.58427734 29.03927917 87.69931641 29.04250183 88.84814453 29.04582214 C90.00701172 29.05420105 91.16587891 29.06257996 92.35986328 29.07121277 C93.53419922 29.07572449 94.70853516 29.08023621 95.91845703 29.08488464 C98.81561423 29.09666171 101.71274521 29.11459689 104.60986328 29.13371277 C104.60986328 24.51371277 104.60986328 19.89371277 104.60986328 15.13371277 C89.42986328 15.13371277 74.24986328 15.13371277 58.60986328 15.13371277 C58.60986328 20.74371277 58.60986328 26.35371277 58.60986328 32.13371277 C57.29528751 38.55193566 55.73778068 42.03601904 50.48095703 45.98136902 C44.25857485 49.81352506 36.72052201 49.8674378 29.60986328 49.13371277 C27.60986328 47.13371277 27.60986328 47.13371277 27.37939453 44.56730652 C27.39357422 43.57859558 27.40775391 42.58988464 27.42236328 41.57121277 C27.42880859 40.57992371 27.43525391 39.58863464 27.44189453 38.56730652 C27.60986328 36.13371277 27.60986328 36.13371277 28.60986328 35.13371277 C31.41361599 34.63866815 34.22525139 34.23320078 37.04345703 33.82902527 C39.9440602 33.34529725 39.9440602 33.34529725 41.60986328 30.13371277 C41.91061009 27.53764363 42.1178149 25.04818153 42.23486328 22.44621277 C42.42048828 18.82652527 42.42048828 18.82652527 42.60986328 15.13371277 C35.34986328 15.46371277 28.08986328 15.79371277 20.60986328 16.13371277 C20.56388725 21.45416125 20.52408115 26.77391709 20.5 32.09440613 C20.48995841 33.90334919 20.47632248 35.71227609 20.45898438 37.52116394 C20.43465496 40.12512712 20.42336167 42.72887519 20.41455078 45.33293152 C20.39906693 46.5410273 20.39906693 46.5410273 20.38327026 47.77352905 C20.38243171 51.99461161 20.55898977 55.32501217 22.60986328 59.13371277 C26.43887753 62.59217725 29.85332154 63.25261918 34.89892578 63.41496277 C35.92244141 63.45234558 36.94595703 63.48972839 38.00048828 63.52824402 C40.1645425 63.598811 42.32860509 63.66912168 44.49267578 63.73918152 C45.51361328 63.77656433 46.53455078 63.81394714 47.58642578 63.85246277 C48.52566895 63.88275574 49.46491211 63.91304871 50.43261719 63.94425964 C52.60986328 64.13371277 52.60986328 64.13371277 53.60986328 65.13371277 C53.68245274 67.3201073 53.69360111 69.50871666 53.67236328 71.69621277 C53.66333984 72.89375183 53.65431641 74.09129089 53.64501953 75.32511902 C53.63341797 76.25195496 53.62181641 77.17879089 53.60986328 78.13371277 C49.59118408 80.14305237 44.46424449 79.31859458 40.04736328 79.32121277 C38.98710937 79.33345886 37.92685547 79.34570496 36.83447266 79.35832214 C26.41445651 79.37760657 17.56905513 78.39878905 9.60986328 71.13371277 C3.85442144 63.47349375 3.45697135 55.84536233 3.51220703 46.57902527 C3.51362198 45.67747711 3.51503693 44.77592896 3.51649475 43.84706116 C3.52206588 40.98424377 3.53461302 38.12150628 3.54736328 35.25871277 C3.55238201 33.31079724 3.55694427 31.36288047 3.56103516 29.41496277 C3.57202586 24.65451559 3.58927051 19.8941277 3.60986328 15.13371277 C2.89958984 15.14531433 2.18931641 15.15691589 1.45751953 15.16886902 C0.53841797 15.17789246 -0.38068359 15.18691589 -1.32763672 15.19621277 C-2.24416016 15.20781433 -3.16068359 15.21941589 -4.10498047 15.23136902 C-6.39013672 15.13371277 -6.39013672 15.13371277 -7.39013672 14.13371277 C-7.46272618 11.94731824 -7.47387455 9.75870888 -7.45263672 7.57121277 C-7.44361328 6.37367371 -7.43458984 5.17613464 -7.42529297 3.94230652 C-7.41369141 3.01547058 -7.40208984 2.08863464 -7.39013672 1.13371277 C-4.79317813 -0.16476653 -2.90919184 0.00488283 0 0 Z " fill="#000000" transform="translate(132.39013671875,855.8662872314453)"/>
<path d="M0 0 C17 0 17 0 21.9375 4.625 C23.33523359 6.72160038 24.68790213 8.84876976 26 11 C27.14734235 12.61023564 28.29522442 14.22019864 29.46166992 15.81665039 C30.7231913 17.54901245 31.958697 19.29782011 33.19140625 21.05078125 C36.98968807 26.42190771 40.91493689 31.69974576 44.8269043 36.98828125 C49.2497332 42.97018143 53.62385618 48.98280225 58 55 C58.33 36.85 58.66 18.7 59 0 C65.27 0 71.54 0 78 0 C78 30.36 78 60.72 78 92 C61 92 61 92 56.55078125 88.29296875 C55.41356597 86.6292063 54.33560135 84.92376832 53.3125 83.1875 C52.08398787 81.34201203 50.85480479 79.49697056 49.625 77.65234375 C49.02558594 76.70858887 48.42617187 75.76483398 47.80859375 74.79248047 C45.00555372 70.4645685 41.90696041 66.37177115 38.8125 62.25 C37.77605049 60.83949105 36.74091151 59.42801825 35.70703125 58.015625 C30.50888767 50.98252031 25.24735105 43.99646806 20 37 C19.67 55.15 19.34 73.3 19 92 C12.73 92 6.46 92 0 92 C0 61.64 0 31.28 0 0 Z " fill="#000000" transform="translate(144,995)"/>
<path d="M0 0 C4.96098233 4.71084877 7.80331129 9.12215043 8.4921875 16.0234375 C8.57484863 16.83055176 8.65750977 17.63766602 8.74267578 18.46923828 C8.80181152 19.0826709 8.86094727 19.69610352 8.921875 20.328125 C5.85559794 20.54478049 2.80460262 20.70271818 -0.265625 20.828125 C-1.56209961 20.92867187 -1.56209961 20.92867187 -2.88476562 21.03125 C-5.50246768 21.11148608 -7.56436587 21.07910492 -10.078125 20.328125 C-11.86724187 18.419449 -12.93807542 16.60678946 -14.07299805 14.25585938 C-15.04419841 12.06001565 -15.04419841 12.06001565 -17.703125 10.328125 C-23.76853508 8.53096646 -29.60474826 8.44477616 -35.578125 10.578125 C-38.95000847 12.92480302 -38.95000847 12.92480302 -41.078125 16.328125 C-41.32098395 19.87937829 -41.32098395 19.87937829 -40.078125 23.328125 C-33.77230257 29.0647493 -24.68132866 29.75916715 -16.6171875 31.5078125 C-7.55394794 33.60380794 1.21924226 36.2524826 6.984375 44.015625 C11.39468872 51.55583877 11.29248686 62.02619717 9.12109375 70.42578125 C5.45160268 78.58440916 -1.14535098 83.40752897 -9.265625 86.765625 C-21.72151969 90.4592215 -38.45255691 90.42308303 -50.078125 84.328125 C-56.45888052 80.55478785 -60.44395409 76.25013519 -63.328125 69.328125 C-64.10900328 66.20461188 -64.13153933 63.53298453 -64.078125 60.328125 C-60.99551044 60.1534853 -57.91416667 60.04718433 -54.828125 59.953125 C-53.95542969 59.90285156 -53.08273437 59.85257813 -52.18359375 59.80078125 C-49.6835079 59.74352738 -47.51633889 59.76371576 -45.078125 60.328125 C-42.65234375 63.20703125 -42.65234375 63.20703125 -41.078125 66.328125 C-35.12962058 71.01099018 -29.57188641 72.09954162 -22.078125 71.328125 C-18.22478549 70.39231398 -15.07778941 69.20283136 -12.078125 66.578125 C-10.60018757 63.25276579 -10.56514755 60.91896715 -11.078125 57.328125 C-15.79131313 51.67229924 -24.05512022 50.79185329 -30.89453125 49.20703125 C-32.20055298 48.8975354 -32.20055298 48.8975354 -33.53295898 48.58178711 C-35.275349 48.17155996 -37.02093083 47.77459705 -38.76977539 47.39282227 C-46.02176525 45.68925878 -52.59334758 42.74763998 -57.453125 36.890625 C-57.91460937 36.35566406 -58.37609375 35.82070312 -58.8515625 35.26953125 C-63.29671782 28.23372808 -63.15065463 19.46043121 -61.49609375 11.54296875 C-59.18839524 4.72524757 -55.04814559 0.25672518 -49.078125 -3.671875 C-33.49939539 -11.1160048 -13.89800478 -11.18110159 0 0 Z " fill="#000000" transform="translate(405.078125,1000.671875)"/>
<path d="M0 0 C5.82234411 5.10603048 10.12934017 12.53761513 11.4765625 20.171875 C11.4765625 22.151875 11.4765625 24.131875 11.4765625 26.171875 C5.2065625 26.171875 -1.0634375 26.171875 -7.5234375 26.171875 C-8.2246875 24.625 -8.9259375 23.078125 -9.6484375 21.484375 C-12.58138937 15.64325677 -15.3575694 12.61716261 -21.3984375 9.859375 C-29.13167531 8.15806268 -34.76371121 9.10265363 -41.5234375 13.171875 C-48.41662576 19.69245849 -50.46084895 29.17970889 -50.7734375 38.296875 C-50.66120583 47.46246115 -48.76090823 57.13777078 -42.5234375 64.171875 C-37.92441582 68.11553609 -32.50877597 69.42251731 -26.5234375 69.171875 C-20.39688084 68.02757599 -15.76823577 65.71987315 -11.5234375 61.171875 C-10.5334375 58.531875 -9.5434375 55.891875 -8.5234375 53.171875 C-1.9234375 53.171875 4.6765625 53.171875 11.4765625 53.171875 C11.21127005 62.32446445 8.78382369 69.37616151 2.58203125 76.28125 C-7.95284075 86.00574723 -19.69488472 87.76596318 -33.5546875 87.48046875 C-44.92457159 86.96385071 -53.47009074 82.57073242 -61.234375 74.36328125 C-69.68242997 64.04979283 -71.710354 52.4316803 -71.7734375 39.546875 C-71.7940625 38.51691406 -71.8146875 37.48695312 -71.8359375 36.42578125 C-71.90146249 23.40268867 -68.37451565 11.05674514 -59.3984375 1.359375 C-42.77498595 -14.24406377 -17.64224259 -12.78106739 0 0 Z " fill="#000000" transform="translate(744.5234375,1001.828125)"/>
<path d="M0 0 C6.6 0 13.2 0 20 0 C20 30.36 20 60.72 20 92 C13.4 92 6.8 92 0 92 C0 61.64 0 31.28 0 0 Z " fill="#000000" transform="translate(534,995)"/>
</svg>
